<mxfile host="65bd71144e">
    <diagram name="Page-1" id="lef5iDwa3xXjvtml4HyG">
        <mxGraphModel dx="4154" dy="1810" grid="1" gridSize="10" guides="1" tooltips="1" connect="1" arrows="1" fold="1" page="1" pageScale="1" pageWidth="827" pageHeight="1169" math="0" shadow="0">
            <root>
                <mxCell id="0"/>
                <mxCell id="1" parent="0"/>
                <mxCell id="9PuQq-sYvJ30OwEYMtA9-5" style="edgeStyle=orthogonalEdgeStyle;rounded=0;orthogonalLoop=1;jettySize=auto;html=1;exitX=0.25;exitY=1;exitDx=0;exitDy=0;entryX=0.5;entryY=0;entryDx=0;entryDy=0;" parent="1" source="9PuQq-sYvJ30OwEYMtA9-1" target="9PuQq-sYvJ30OwEYMtA9-3" edge="1">
                    <mxGeometry relative="1" as="geometry"/>
                </mxCell>
                <mxCell id="9PuQq-sYvJ30OwEYMtA9-8" style="edgeStyle=orthogonalEdgeStyle;rounded=0;orthogonalLoop=1;jettySize=auto;html=1;exitX=0.75;exitY=1;exitDx=0;exitDy=0;entryX=0.5;entryY=0;entryDx=0;entryDy=0;" parent="1" source="9PuQq-sYvJ30OwEYMtA9-1" target="9PuQq-sYvJ30OwEYMtA9-6" edge="1">
                    <mxGeometry relative="1" as="geometry"/>
                </mxCell>
                <mxCell id="9PuQq-sYvJ30OwEYMtA9-1" value="" style="rounded=0;whiteSpace=wrap;html=1;" parent="1" vertex="1">
                    <mxGeometry x="280" y="80" width="160" height="40" as="geometry"/>
                </mxCell>
                <mxCell id="9PuQq-sYvJ30OwEYMtA9-2" value="Velg kjønn?" style="text;html=1;strokeColor=none;fillColor=none;align=center;verticalAlign=middle;whiteSpace=wrap;rounded=0;" parent="1" vertex="1">
                    <mxGeometry x="330" y="85" width="60" height="30" as="geometry"/>
                </mxCell>
                <mxCell id="9PuQq-sYvJ30OwEYMtA9-19" style="edgeStyle=orthogonalEdgeStyle;rounded=0;orthogonalLoop=1;jettySize=auto;html=1;exitX=0.75;exitY=1;exitDx=0;exitDy=0;entryX=0.5;entryY=0;entryDx=0;entryDy=0;" parent="1" source="9PuQq-sYvJ30OwEYMtA9-3" target="9PuQq-sYvJ30OwEYMtA9-14" edge="1">
                    <mxGeometry relative="1" as="geometry"/>
                </mxCell>
                <mxCell id="9PuQq-sYvJ30OwEYMtA9-20" style="edgeStyle=orthogonalEdgeStyle;rounded=0;orthogonalLoop=1;jettySize=auto;html=1;exitX=0.25;exitY=1;exitDx=0;exitDy=0;entryX=0.5;entryY=0;entryDx=0;entryDy=0;" parent="1" source="9PuQq-sYvJ30OwEYMtA9-3" target="9PuQq-sYvJ30OwEYMtA9-15" edge="1">
                    <mxGeometry relative="1" as="geometry"/>
                </mxCell>
                <mxCell id="9PuQq-sYvJ30OwEYMtA9-3" value="" style="rounded=0;whiteSpace=wrap;html=1;" parent="1" vertex="1">
                    <mxGeometry x="160" y="200" width="160" height="60" as="geometry"/>
                </mxCell>
                <mxCell id="9PuQq-sYvJ30OwEYMtA9-6" value="" style="rounded=0;whiteSpace=wrap;html=1;" parent="1" vertex="1">
                    <mxGeometry x="400" y="200" width="160" height="60" as="geometry"/>
                </mxCell>
                <mxCell id="9PuQq-sYvJ30OwEYMtA9-9" value="&lt;b&gt;GAME OVER&lt;/b&gt;" style="text;html=1;strokeColor=none;fillColor=none;align=center;verticalAlign=middle;whiteSpace=wrap;rounded=0;" parent="1" vertex="1">
                    <mxGeometry x="450" y="215" width="80" height="30" as="geometry"/>
                </mxCell>
                <mxCell id="9PuQq-sYvJ30OwEYMtA9-10" value="mann" style="text;html=1;strokeColor=none;fillColor=none;align=center;verticalAlign=middle;whiteSpace=wrap;rounded=0;" parent="1" vertex="1">
                    <mxGeometry x="250" y="140" width="60" height="30" as="geometry"/>
                </mxCell>
                <mxCell id="9PuQq-sYvJ30OwEYMtA9-11" value="kvinne" style="text;html=1;strokeColor=none;fillColor=none;align=center;verticalAlign=middle;whiteSpace=wrap;rounded=0;" parent="1" vertex="1">
                    <mxGeometry x="414" y="140" width="60" height="30" as="geometry"/>
                </mxCell>
                <mxCell id="9PuQq-sYvJ30OwEYMtA9-13" value="Gratulerer du ble født. vil du drikke morsmelk eller ikke?" style="text;html=1;strokeColor=none;fillColor=none;align=center;verticalAlign=middle;whiteSpace=wrap;rounded=0;" parent="1" vertex="1">
                    <mxGeometry x="185" y="215" width="110" height="30" as="geometry"/>
                </mxCell>
                <mxCell id="9PuQq-sYvJ30OwEYMtA9-31" style="edgeStyle=orthogonalEdgeStyle;rounded=0;orthogonalLoop=1;jettySize=auto;html=1;exitX=0.25;exitY=1;exitDx=0;exitDy=0;entryX=0.5;entryY=0;entryDx=0;entryDy=0;" parent="1" source="9PuQq-sYvJ30OwEYMtA9-14" target="9PuQq-sYvJ30OwEYMtA9-26" edge="1">
                    <mxGeometry relative="1" as="geometry"/>
                </mxCell>
                <mxCell id="9PuQq-sYvJ30OwEYMtA9-32" style="edgeStyle=orthogonalEdgeStyle;rounded=0;orthogonalLoop=1;jettySize=auto;html=1;exitX=0.75;exitY=1;exitDx=0;exitDy=0;entryX=0.5;entryY=0;entryDx=0;entryDy=0;" parent="1" source="9PuQq-sYvJ30OwEYMtA9-14" target="9PuQq-sYvJ30OwEYMtA9-27" edge="1">
                    <mxGeometry relative="1" as="geometry"/>
                </mxCell>
                <mxCell id="9PuQq-sYvJ30OwEYMtA9-14" value="" style="rounded=0;whiteSpace=wrap;html=1;" parent="1" vertex="1">
                    <mxGeometry x="160" y="350" width="160" height="180" as="geometry"/>
                </mxCell>
                <mxCell id="9PuQq-sYvJ30OwEYMtA9-33" style="edgeStyle=orthogonalEdgeStyle;rounded=0;orthogonalLoop=1;jettySize=auto;html=1;exitX=0.75;exitY=1;exitDx=0;exitDy=0;entryX=0.5;entryY=0;entryDx=0;entryDy=0;" parent="1" source="9PuQq-sYvJ30OwEYMtA9-15" target="9PuQq-sYvJ30OwEYMtA9-29" edge="1">
                    <mxGeometry relative="1" as="geometry"/>
                </mxCell>
                <mxCell id="9PuQq-sYvJ30OwEYMtA9-34" style="edgeStyle=orthogonalEdgeStyle;rounded=0;orthogonalLoop=1;jettySize=auto;html=1;exitX=0.25;exitY=1;exitDx=0;exitDy=0;entryX=0.5;entryY=0;entryDx=0;entryDy=0;" parent="1" source="9PuQq-sYvJ30OwEYMtA9-15" target="9PuQq-sYvJ30OwEYMtA9-28" edge="1">
                    <mxGeometry relative="1" as="geometry"/>
                </mxCell>
                <mxCell id="9PuQq-sYvJ30OwEYMtA9-15" value="" style="rounded=0;whiteSpace=wrap;html=1;" parent="1" vertex="1">
                    <mxGeometry x="-80" y="350" width="160" height="160" as="geometry"/>
                </mxCell>
                <mxCell id="9PuQq-sYvJ30OwEYMtA9-21" value="ja" style="text;html=1;strokeColor=none;fillColor=none;align=center;verticalAlign=middle;whiteSpace=wrap;rounded=0;" parent="1" vertex="1">
                    <mxGeometry x="70" y="290" width="60" height="20" as="geometry"/>
                </mxCell>
                <mxCell id="9PuQq-sYvJ30OwEYMtA9-23" value="nei" style="text;html=1;strokeColor=none;fillColor=none;align=center;verticalAlign=middle;whiteSpace=wrap;rounded=0;" parent="1" vertex="1">
                    <mxGeometry x="230" y="290" width="60" height="20" as="geometry"/>
                </mxCell>
                <mxCell id="9PuQq-sYvJ30OwEYMtA9-24" value="du mister styrke poeng. dettee gjør at du blir mobbet når du begynner på barneskolen. På grunn av dette begynner du også i korps. på barneskolen har du 1 god venn. han heter Kjetil. kjetil lurer på om du vil bli med å leke? (men du har lekser å gjøre)" style="text;html=1;strokeColor=none;fillColor=none;align=center;verticalAlign=middle;whiteSpace=wrap;rounded=0;" parent="1" vertex="1">
                    <mxGeometry x="170" y="430" width="140" height="30" as="geometry"/>
                </mxCell>
                <mxCell id="9PuQq-sYvJ30OwEYMtA9-25" value="Du får stykepoeng og blir derfor stor. du blir populær på skolen og begynner på fotball. du har mange gode venner som ofte lurer på om du vil spille fotball. vil du gjøre lekser eller spille fotball?" style="text;html=1;strokeColor=none;fillColor=none;align=center;verticalAlign=middle;whiteSpace=wrap;rounded=0;" parent="1" vertex="1">
                    <mxGeometry x="-70" y="420" width="140" height="30" as="geometry"/>
                </mxCell>
                <mxCell id="9PuQq-sYvJ30OwEYMtA9-26" value="" style="rounded=0;whiteSpace=wrap;html=1;" parent="1" vertex="1">
                    <mxGeometry x="160" y="600" width="160" height="100" as="geometry"/>
                </mxCell>
                <mxCell id="9PuQq-sYvJ30OwEYMtA9-70" style="edgeStyle=orthogonalEdgeStyle;rounded=0;orthogonalLoop=1;jettySize=auto;html=1;exitX=0.25;exitY=1;exitDx=0;exitDy=0;entryX=0.5;entryY=0;entryDx=0;entryDy=0;" parent="1" source="9PuQq-sYvJ30OwEYMtA9-27" target="9PuQq-sYvJ30OwEYMtA9-60" edge="1">
                    <mxGeometry relative="1" as="geometry"/>
                </mxCell>
                <mxCell id="9PuQq-sYvJ30OwEYMtA9-71" style="edgeStyle=orthogonalEdgeStyle;rounded=0;orthogonalLoop=1;jettySize=auto;html=1;exitX=0.75;exitY=1;exitDx=0;exitDy=0;" parent="1" source="9PuQq-sYvJ30OwEYMtA9-27" target="9PuQq-sYvJ30OwEYMtA9-61" edge="1">
                    <mxGeometry relative="1" as="geometry"/>
                </mxCell>
                <mxCell id="9PuQq-sYvJ30OwEYMtA9-27" value="" style="rounded=0;whiteSpace=wrap;html=1;" parent="1" vertex="1">
                    <mxGeometry x="400" y="600" width="160" height="230" as="geometry"/>
                </mxCell>
                <mxCell id="9PuQq-sYvJ30OwEYMtA9-49" style="edgeStyle=orthogonalEdgeStyle;rounded=0;orthogonalLoop=1;jettySize=auto;html=1;exitX=0.25;exitY=1;exitDx=0;exitDy=0;entryX=0.5;entryY=0;entryDx=0;entryDy=0;" parent="1" source="9PuQq-sYvJ30OwEYMtA9-28" target="9PuQq-sYvJ30OwEYMtA9-45" edge="1">
                    <mxGeometry relative="1" as="geometry">
                        <Array as="points">
                            <mxPoint x="-280" y="770"/>
                            <mxPoint x="-720" y="770"/>
                        </Array>
                    </mxGeometry>
                </mxCell>
                <mxCell id="9PuQq-sYvJ30OwEYMtA9-50" style="edgeStyle=orthogonalEdgeStyle;rounded=0;orthogonalLoop=1;jettySize=auto;html=1;exitX=0.75;exitY=1;exitDx=0;exitDy=0;entryX=0.5;entryY=0;entryDx=0;entryDy=0;" parent="1" source="9PuQq-sYvJ30OwEYMtA9-28" target="9PuQq-sYvJ30OwEYMtA9-44" edge="1">
                    <mxGeometry relative="1" as="geometry">
                        <Array as="points">
                            <mxPoint x="-200" y="810"/>
                            <mxPoint x="-480" y="810"/>
                        </Array>
                    </mxGeometry>
                </mxCell>
                <mxCell id="9PuQq-sYvJ30OwEYMtA9-28" value="" style="rounded=0;whiteSpace=wrap;html=1;" parent="1" vertex="1">
                    <mxGeometry x="-320" y="600" width="160" height="100" as="geometry"/>
                </mxCell>
                <mxCell id="9PuQq-sYvJ30OwEYMtA9-47" style="edgeStyle=orthogonalEdgeStyle;rounded=0;orthogonalLoop=1;jettySize=auto;html=1;exitX=0.25;exitY=1;exitDx=0;exitDy=0;entryX=0.5;entryY=0;entryDx=0;entryDy=0;" parent="1" source="9PuQq-sYvJ30OwEYMtA9-29" target="9PuQq-sYvJ30OwEYMtA9-42" edge="1">
                    <mxGeometry relative="1" as="geometry"/>
                </mxCell>
                <mxCell id="9PuQq-sYvJ30OwEYMtA9-48" style="edgeStyle=orthogonalEdgeStyle;rounded=0;orthogonalLoop=1;jettySize=auto;html=1;exitX=0.75;exitY=1;exitDx=0;exitDy=0;entryX=0.5;entryY=0;entryDx=0;entryDy=0;" parent="1" source="9PuQq-sYvJ30OwEYMtA9-29" target="9PuQq-sYvJ30OwEYMtA9-41" edge="1">
                    <mxGeometry relative="1" as="geometry"/>
                </mxCell>
                <mxCell id="9PuQq-sYvJ30OwEYMtA9-29" value="" style="rounded=0;whiteSpace=wrap;html=1;" parent="1" vertex="1">
                    <mxGeometry x="-80" y="600" width="160" height="180" as="geometry"/>
                </mxCell>
                <mxCell id="9PuQq-sYvJ30OwEYMtA9-35" value="Lekser" style="text;html=1;strokeColor=none;fillColor=none;align=center;verticalAlign=middle;whiteSpace=wrap;rounded=0;" parent="1" vertex="1">
                    <mxGeometry x="-10" y="530" width="60" height="30" as="geometry"/>
                </mxCell>
                <mxCell id="9PuQq-sYvJ30OwEYMtA9-36" value="fotball" style="text;html=1;strokeColor=none;fillColor=none;align=center;verticalAlign=middle;whiteSpace=wrap;rounded=0;" parent="1" vertex="1">
                    <mxGeometry x="-170" y="530" width="60" height="30" as="geometry"/>
                </mxCell>
                <mxCell id="9PuQq-sYvJ30OwEYMtA9-37" value="lekser" style="text;html=1;strokeColor=none;fillColor=none;align=center;verticalAlign=middle;whiteSpace=wrap;rounded=0;" parent="1" vertex="1">
                    <mxGeometry x="200" y="540" width="60" height="30" as="geometry"/>
                </mxCell>
                <mxCell id="9PuQq-sYvJ30OwEYMtA9-38" value="venner" style="text;html=1;strokeColor=none;fillColor=none;align=center;verticalAlign=middle;whiteSpace=wrap;rounded=0;" parent="1" vertex="1">
                    <mxGeometry x="354" y="540" width="60" height="30" as="geometry"/>
                </mxCell>
                <mxCell id="9PuQq-sYvJ30OwEYMtA9-39" value="Du blir veldig god i fotball. når du begynner på ungdomskolen og vidregående begynner du å lure på om du skal begynne å skulke for å få mere tid til å spille fotball?" style="text;html=1;strokeColor=none;fillColor=none;align=center;verticalAlign=middle;whiteSpace=wrap;rounded=0;" parent="1" vertex="1">
                    <mxGeometry x="-320" y="585" width="150" height="130" as="geometry"/>
                </mxCell>
                <mxCell id="9PuQq-sYvJ30OwEYMtA9-40" value="gjennom ungdomskolen og vidregående både god i fotball, får sosiale ferdigheter og blir relativt smart på skolen. Du er veldig populær og den populære gjengen du er med i ber deg konstant om å bli med å drikke selv om det er skole dagen etter. skulker du skolen for å bli med å drikke?" style="text;html=1;strokeColor=none;fillColor=none;align=center;verticalAlign=middle;whiteSpace=wrap;rounded=0;" parent="1" vertex="1">
                    <mxGeometry x="-80" y="610" width="160" height="160" as="geometry"/>
                </mxCell>
                <mxCell id="9PuQq-sYvJ30OwEYMtA9-41" value="" style="rounded=0;whiteSpace=wrap;html=1;" parent="1" vertex="1">
                    <mxGeometry x="-80" y="920" width="160" height="110" as="geometry"/>
                </mxCell>
                <mxCell id="9PuQq-sYvJ30OwEYMtA9-72" style="edgeStyle=orthogonalEdgeStyle;rounded=0;orthogonalLoop=1;jettySize=auto;html=1;exitX=0.75;exitY=1;exitDx=0;exitDy=0;" parent="1" source="9PuQq-sYvJ30OwEYMtA9-42" target="9PuQq-sYvJ30OwEYMtA9-65" edge="1">
                    <mxGeometry relative="1" as="geometry"/>
                </mxCell>
                <mxCell id="9PuQq-sYvJ30OwEYMtA9-73" style="edgeStyle=orthogonalEdgeStyle;rounded=0;orthogonalLoop=1;jettySize=auto;html=1;exitX=0.25;exitY=1;exitDx=0;exitDy=0;entryX=0.5;entryY=0;entryDx=0;entryDy=0;" parent="1" source="9PuQq-sYvJ30OwEYMtA9-42" target="9PuQq-sYvJ30OwEYMtA9-64" edge="1">
                    <mxGeometry relative="1" as="geometry"/>
                </mxCell>
                <mxCell id="9PuQq-sYvJ30OwEYMtA9-42" value="" style="rounded=0;whiteSpace=wrap;html=1;" parent="1" vertex="1">
                    <mxGeometry x="-320" y="920" width="160" height="130" as="geometry"/>
                </mxCell>
                <mxCell id="9PuQq-sYvJ30OwEYMtA9-43" value="Du var god i fotball, men nådde aldri helt til topps. Universitet er nå neste steg. hvilket universitet velger du?" style="text;html=1;strokeColor=none;fillColor=none;align=center;verticalAlign=middle;whiteSpace=wrap;rounded=0;" parent="1" vertex="1">
                    <mxGeometry x="-290" y="935" width="110" height="105" as="geometry"/>
                </mxCell>
                <mxCell id="9PuQq-sYvJ30OwEYMtA9-75" style="edgeStyle=orthogonalEdgeStyle;rounded=0;orthogonalLoop=1;jettySize=auto;html=1;exitX=0.25;exitY=1;exitDx=0;exitDy=0;entryX=0.5;entryY=0;entryDx=0;entryDy=0;" parent="1" source="9PuQq-sYvJ30OwEYMtA9-44" target="9PuQq-sYvJ30OwEYMtA9-66" edge="1">
                    <mxGeometry relative="1" as="geometry"/>
                </mxCell>
                <mxCell id="9PuQq-sYvJ30OwEYMtA9-78" style="edgeStyle=orthogonalEdgeStyle;rounded=0;orthogonalLoop=1;jettySize=auto;html=1;exitX=0.75;exitY=1;exitDx=0;exitDy=0;entryX=0.5;entryY=0;entryDx=0;entryDy=0;" parent="1" source="9PuQq-sYvJ30OwEYMtA9-44" target="9PuQq-sYvJ30OwEYMtA9-67" edge="1">
                    <mxGeometry relative="1" as="geometry"/>
                </mxCell>
                <mxCell id="9PuQq-sYvJ30OwEYMtA9-44" value="" style="rounded=0;whiteSpace=wrap;html=1;" parent="1" vertex="1">
                    <mxGeometry x="-560" y="920" width="160" height="170" as="geometry"/>
                </mxCell>
                <mxCell id="9PuQq-sYvJ30OwEYMtA9-76" style="edgeStyle=orthogonalEdgeStyle;rounded=0;orthogonalLoop=1;jettySize=auto;html=1;exitX=0.75;exitY=1;exitDx=0;exitDy=0;entryX=0.5;entryY=0;entryDx=0;entryDy=0;" parent="1" source="9PuQq-sYvJ30OwEYMtA9-45" target="9PuQq-sYvJ30OwEYMtA9-69" edge="1">
                    <mxGeometry relative="1" as="geometry"/>
                </mxCell>
                <mxCell id="9PuQq-sYvJ30OwEYMtA9-77" style="edgeStyle=orthogonalEdgeStyle;rounded=0;orthogonalLoop=1;jettySize=auto;html=1;exitX=0.25;exitY=1;exitDx=0;exitDy=0;entryX=0.5;entryY=0;entryDx=0;entryDy=0;" parent="1" source="9PuQq-sYvJ30OwEYMtA9-45" target="9PuQq-sYvJ30OwEYMtA9-68" edge="1">
                    <mxGeometry relative="1" as="geometry">
                        <Array as="points">
                            <mxPoint x="-760" y="1080"/>
                            <mxPoint x="-1200" y="1080"/>
                        </Array>
                    </mxGeometry>
                </mxCell>
                <mxCell id="9PuQq-sYvJ30OwEYMtA9-45" value="" style="rounded=0;whiteSpace=wrap;html=1;" parent="1" vertex="1">
                    <mxGeometry x="-800" y="920" width="160" height="130" as="geometry"/>
                </mxCell>
                <mxCell id="9PuQq-sYvJ30OwEYMtA9-46" value="Du var god i fotball, men nådde aldri helt til topps. Universitet er nå neste steg. hvilket universitet velger du?" style="text;html=1;strokeColor=none;fillColor=none;align=center;verticalAlign=middle;whiteSpace=wrap;rounded=0;" parent="1" vertex="1">
                    <mxGeometry x="-770" y="935" width="110" height="105" as="geometry"/>
                </mxCell>
                <mxCell id="9PuQq-sYvJ30OwEYMtA9-51" value="Nei" style="text;html=1;strokeColor=none;fillColor=none;align=center;verticalAlign=middle;whiteSpace=wrap;rounded=0;" parent="1" vertex="1">
                    <mxGeometry x="-550" y="750" width="60" height="30" as="geometry"/>
                </mxCell>
                <mxCell id="9PuQq-sYvJ30OwEYMtA9-52" value="Nei" style="text;html=1;strokeColor=none;fillColor=none;align=center;verticalAlign=middle;whiteSpace=wrap;rounded=0;" parent="1" vertex="1">
                    <mxGeometry x="-170" y="830" width="60" height="30" as="geometry"/>
                </mxCell>
                <mxCell id="9PuQq-sYvJ30OwEYMtA9-53" value="Ja" style="text;html=1;strokeColor=none;fillColor=none;align=center;verticalAlign=middle;whiteSpace=wrap;rounded=0;" parent="1" vertex="1">
                    <mxGeometry x="-270" y="790" width="60" height="30" as="geometry"/>
                </mxCell>
                <mxCell id="9PuQq-sYvJ30OwEYMtA9-54" value="Ja" style="text;html=1;strokeColor=none;fillColor=none;align=center;verticalAlign=middle;whiteSpace=wrap;rounded=0;" parent="1" vertex="1">
                    <mxGeometry x="-10" y="830" width="60" height="30" as="geometry"/>
                </mxCell>
                <mxCell id="9PuQq-sYvJ30OwEYMtA9-55" value="Du blir i løpet av ungdomskolen veldig god i fotball, og innen vidregående har du alerede signert proff kontrakt med Molde. ett år etter du har signert med molde ffår du tilbud om å starte i ny klubb, men du går ned 30k i årslønn. bytte klubb?" style="text;html=1;strokeColor=none;fillColor=none;align=center;verticalAlign=middle;whiteSpace=wrap;rounded=0;" parent="1" vertex="1">
                    <mxGeometry x="-555" y="925" width="150" height="160" as="geometry"/>
                </mxCell>
                <mxCell id="9PuQq-sYvJ30OwEYMtA9-57" value="Du prøver hjemmebrent på russebuss og dør av alkoholforgiftning. &lt;b&gt;GAME OVER&lt;/b&gt;" style="text;html=1;strokeColor=none;fillColor=none;align=center;verticalAlign=middle;whiteSpace=wrap;rounded=0;" parent="1" vertex="1">
                    <mxGeometry x="-65" y="927.5" width="130" height="95" as="geometry"/>
                </mxCell>
                <mxCell id="9PuQq-sYvJ30OwEYMtA9-58" value="Du blir ekstremt god på skolen, men har nå ingen venner. Du dør av depresjon. &lt;b&gt;GAME OVER&lt;/b&gt;" style="text;html=1;strokeColor=none;fillColor=none;align=center;verticalAlign=middle;whiteSpace=wrap;rounded=0;" parent="1" vertex="1">
                    <mxGeometry x="180" y="612.5" width="130" height="75" as="geometry"/>
                </mxCell>
                <mxCell id="9PuQq-sYvJ30OwEYMtA9-59" value="Gjennom ungdomskolen og vidregående er du ekstremt flink til å jobbe med skolen , og du får deg noen få veldig gode venner. tiden kommer for å velge universitet. din beste venn kom inn på data NTNU ålesund, du kom selv inn på data NTNU Trondheim. Følger du vennen din eller går du for den bedre skolen?" style="text;html=1;strokeColor=none;fillColor=none;align=center;verticalAlign=middle;whiteSpace=wrap;rounded=0;" parent="1" vertex="1">
                    <mxGeometry x="410" y="615" width="140" height="175" as="geometry"/>
                </mxCell>
                <mxCell id="9PuQq-sYvJ30OwEYMtA9-60" value="" style="rounded=0;whiteSpace=wrap;html=1;" parent="1" vertex="1">
                    <mxGeometry x="160" y="1160" width="160" height="120" as="geometry"/>
                </mxCell>
                <mxCell id="9PuQq-sYvJ30OwEYMtA9-61" value="" style="rounded=0;whiteSpace=wrap;html=1;" parent="1" vertex="1">
                    <mxGeometry x="400" y="1160" width="160" height="120" as="geometry"/>
                </mxCell>
                <mxCell id="9PuQq-sYvJ30OwEYMtA9-64" value="" style="rounded=0;whiteSpace=wrap;html=1;" parent="1" vertex="1">
                    <mxGeometry x="-320" y="1160" width="160" height="120" as="geometry"/>
                </mxCell>
                <mxCell id="9PuQq-sYvJ30OwEYMtA9-65" value="" style="rounded=0;whiteSpace=wrap;html=1;" parent="1" vertex="1">
                    <mxGeometry x="-80" y="1160" width="160" height="120" as="geometry"/>
                </mxCell>
                <mxCell id="9PuQq-sYvJ30OwEYMtA9-66" value="" style="rounded=0;whiteSpace=wrap;html=1;" parent="1" vertex="1">
                    <mxGeometry x="-800" y="1160" width="160" height="120" as="geometry"/>
                </mxCell>
                <mxCell id="9PuQq-sYvJ30OwEYMtA9-67" value="" style="rounded=0;whiteSpace=wrap;html=1;" parent="1" vertex="1">
                    <mxGeometry x="-560" y="1160" width="160" height="120" as="geometry"/>
                </mxCell>
                <mxCell id="9PuQq-sYvJ30OwEYMtA9-68" value="" style="rounded=0;whiteSpace=wrap;html=1;" parent="1" vertex="1">
                    <mxGeometry x="-1280" y="1160" width="160" height="120" as="geometry"/>
                </mxCell>
                <mxCell id="9PuQq-sYvJ30OwEYMtA9-69" value="" style="rounded=0;whiteSpace=wrap;html=1;" parent="1" vertex="1">
                    <mxGeometry x="-1040" y="1160" width="160" height="120" as="geometry"/>
                </mxCell>
                <mxCell id="9PuQq-sYvJ30OwEYMtA9-79" value="Ålesund" style="text;html=1;strokeColor=none;fillColor=none;align=center;verticalAlign=middle;whiteSpace=wrap;rounded=0;" parent="1" vertex="1">
                    <mxGeometry x="310" y="970" width="60" height="30" as="geometry"/>
                </mxCell>
                <mxCell id="9PuQq-sYvJ30OwEYMtA9-82" value="Trondheim" style="text;html=1;strokeColor=none;fillColor=none;align=center;verticalAlign=middle;whiteSpace=wrap;rounded=0;" parent="1" vertex="1">
                    <mxGeometry x="460" y="970" width="60" height="30" as="geometry"/>
                </mxCell>
                <mxCell id="9PuQq-sYvJ30OwEYMtA9-83" value="Bi" style="text;html=1;strokeColor=none;fillColor=none;align=center;verticalAlign=middle;whiteSpace=wrap;rounded=0;" parent="1" vertex="1">
                    <mxGeometry x="-290" y="1085" width="60" height="30" as="geometry"/>
                </mxCell>
                <mxCell id="9PuQq-sYvJ30OwEYMtA9-84" value="Kristiania" style="text;html=1;strokeColor=none;fillColor=none;align=center;verticalAlign=middle;whiteSpace=wrap;rounded=0;" parent="1" vertex="1">
                    <mxGeometry x="-125" y="1080" width="60" height="30" as="geometry"/>
                </mxCell>
                <mxCell id="9PuQq-sYvJ30OwEYMtA9-85" value="Bli i Molde" style="text;html=1;strokeColor=none;fillColor=none;align=center;verticalAlign=middle;whiteSpace=wrap;rounded=0;" parent="1" vertex="1">
                    <mxGeometry x="-640" y="1100" width="60" height="30" as="geometry"/>
                </mxCell>
                <mxCell id="9PuQq-sYvJ30OwEYMtA9-86" value="Bytt" style="text;html=1;strokeColor=none;fillColor=none;align=center;verticalAlign=middle;whiteSpace=wrap;rounded=0;" parent="1" vertex="1">
                    <mxGeometry x="-490" y="1100" width="60" height="30" as="geometry"/>
                </mxCell>
                <mxCell id="9PuQq-sYvJ30OwEYMtA9-87" value="Bi" style="text;html=1;strokeColor=none;fillColor=none;align=center;verticalAlign=middle;whiteSpace=wrap;rounded=0;" parent="1" vertex="1">
                    <mxGeometry x="-840" y="1085" width="60" height="30" as="geometry"/>
                </mxCell>
                <mxCell id="9PuQq-sYvJ30OwEYMtA9-88" value="Universitetet i tromsø" style="text;html=1;strokeColor=none;fillColor=none;align=center;verticalAlign=middle;whiteSpace=wrap;rounded=0;" parent="1" vertex="1">
                    <mxGeometry x="-1070" y="1055" width="150" height="30" as="geometry"/>
                </mxCell>
                <mxCell id="9PuQq-sYvJ30OwEYMtA9-90" value="&lt;b&gt;GAME OVER&lt;/b&gt;" style="text;html=1;strokeColor=none;fillColor=none;align=center;verticalAlign=middle;whiteSpace=wrap;rounded=0;" parent="1" vertex="1">
                    <mxGeometry x="-770" y="1200" width="110" height="30" as="geometry"/>
                </mxCell>
                <mxCell id="9PuQq-sYvJ30OwEYMtA9-91" value="&lt;b&gt;GAME OVER&lt;/b&gt;" style="text;html=1;strokeColor=none;fillColor=none;align=center;verticalAlign=middle;whiteSpace=wrap;rounded=0;" parent="1" vertex="1">
                    <mxGeometry x="190" y="1200" width="110" height="30" as="geometry"/>
                </mxCell>
                <mxCell id="9PuQq-sYvJ30OwEYMtA9-92" value="&lt;b&gt;GAME OVER&lt;/b&gt;" style="text;html=1;strokeColor=none;fillColor=none;align=center;verticalAlign=middle;whiteSpace=wrap;rounded=0;" parent="1" vertex="1">
                    <mxGeometry x="-1255" y="1205" width="110" height="30" as="geometry"/>
                </mxCell>
                <mxCell id="2" value="" style="endArrow=none;dashed=1;html=1;dashPattern=1 3;strokeWidth=6;fillColor=#1ba1e2;strokeColor=#006EAF;" edge="1" parent="1">
                    <mxGeometry width="50" height="50" relative="1" as="geometry">
                        <mxPoint x="-1450" y="1150" as="sourcePoint"/>
                        <mxPoint x="810" y="1140" as="targetPoint"/>
                    </mxGeometry>
                </mxCell>
                <mxCell id="3" value="" style="endArrow=none;dashed=1;html=1;dashPattern=1 3;strokeWidth=6;fillColor=#1ba1e2;strokeColor=#006EAF;" edge="1" parent="1">
                    <mxGeometry width="50" height="50" relative="1" as="geometry">
                        <mxPoint x="-1450" y="900" as="sourcePoint"/>
                        <mxPoint x="810" y="890" as="targetPoint"/>
                    </mxGeometry>
                </mxCell>
                <mxCell id="4" value="" style="endArrow=none;dashed=1;html=1;dashPattern=1 3;strokeWidth=6;fillColor=#1ba1e2;strokeColor=#006EAF;" edge="1" parent="1">
                    <mxGeometry width="50" height="50" relative="1" as="geometry">
                        <mxPoint x="-1470" y="595" as="sourcePoint"/>
                        <mxPoint x="790" y="585" as="targetPoint"/>
                    </mxGeometry>
                </mxCell>
                <mxCell id="5" value="" style="endArrow=none;dashed=1;html=1;dashPattern=1 3;strokeWidth=6;fillColor=#1ba1e2;strokeColor=#006EAF;" edge="1" parent="1">
                    <mxGeometry width="50" height="50" relative="1" as="geometry">
                        <mxPoint x="-1470" y="340" as="sourcePoint"/>
                        <mxPoint x="790" y="330" as="targetPoint"/>
                    </mxGeometry>
                </mxCell>
                <mxCell id="6" value="" style="endArrow=none;dashed=1;html=1;dashPattern=1 3;strokeWidth=6;fillColor=#1ba1e2;strokeColor=#006EAF;" edge="1" parent="1">
                    <mxGeometry width="50" height="50" relative="1" as="geometry">
                        <mxPoint x="-1460" y="190" as="sourcePoint"/>
                        <mxPoint x="800" y="180" as="targetPoint"/>
                    </mxGeometry>
                </mxCell>
                <mxCell id="7" value="" style="endArrow=none;dashed=1;html=1;dashPattern=1 3;strokeWidth=6;fillColor=#60a917;strokeColor=#2D7600;" edge="1" parent="1">
                    <mxGeometry width="50" height="50" relative="1" as="geometry">
                        <mxPoint x="-1450" y="1140" as="sourcePoint"/>
                        <mxPoint x="810" y="1130" as="targetPoint"/>
                    </mxGeometry>
                </mxCell>
            </root>
        </mxGraphModel>
    </diagram>
</mxfile>